PathFileType	4	(X/Y/Z)	G:\GRF\jawan data\CompiledGRF\03. Mohit Kumar\0231~ac~Walking 05_markers.trc
DataRate	CameraRate	NumFrames	NumMarkers	Units	OrigDataRate	OrigDataStartFrame	OrigNumFrames
100.000000	100.000000	14	18	mm	100.000000	810	926
Frame#	Time	c7			r should			l should			sacrum			r asis			r bar 1			r knee 1			r bar 2			r mall			r heel			r met			l asis			l bar 1			l knee 1			l bar 2			l mall			l heel			l met			
		X1	Y1	Z1	X2	Y2	Z2	X3	Y3	Z3	X4	Y4	Z4	X5	Y5	Z5	X6	Y6	Z6	X7	Y7	Z7	X8	Y8	Z8	X9	Y9	Z9	X10	Y10	Z10	X11	Y11	Z11	X12	Y12	Z12	X13	Y13	Z13	X14	Y14	Z14	X15	Y15	Z15	X16	Y16	Z16	X17	Y17	Z17	X18	Y18	Z18	

811	8.1	nan	nan	nan	-1838.508422851563	1444.291870117188	84.10303497314453	-1781.942138671875	1451.138793945313	425.738037109375	nan	nan	nan	-1860.875732421875	1002.855041503906	135.5900573730469	-1709.723999023438	606.8160400390625	74.86073303222656	-1704.80908203125	519.4509887695313	127.0390472412109	-1544.110961914063	230.8639831542969	102.4957504272461	nan	nan	nan	nan	nan	nan	nan	nan	nan	-1854.0341796875	1017.775390625	383.4012756347656	-1924.473266601563	606.4287719726563	451.271240234375	-1965.150146484375	530.6326293945313	394.5555114746094	nan	nan	nan	nan	nan	nan	nan	nan	nan	nan	nan	nan	
812	8.109999999999999	nan	nan	nan	-1846.9912109375	1444.735961914063	85.7772216796875	-1791.141845703125	1450.967895507813	427.6045227050781	nan	nan	nan	-1870.680297851563	1002.692687988281	136.737548828125	-1719.2060546875	606.9712524414063	76.22039031982422	-1714.456787109375	519.320068359375	128.2499694824219	-1549.121704101563	234.2891235351563	102.3173599243164	nan	nan	nan	nan	nan	nan	nan	nan	nan	-1864.990966796875	1018.149841308594	384.5950317382813	-1935.499633789063	607.2827758789063	451.5821838378906	nan	nan	nan	nan	nan	nan	nan	nan	nan	nan	nan	nan	nan	nan	nan	
813	8.120000000000001	nan	nan	nan	-1855.43359375	1445.429565429688	87.44772338867188	-1800.421630859375	1450.994506835938	429.4552612304688	nan	nan	nan	-1880.620727539063	1002.854614257813	137.9717102050781	-1729.373291015625	607.5046997070313	77.59658813476563	-1724.78271484375	519.4693603515625	129.1916656494141	-1554.182250976563	238.0196990966797	102.1491088867188	nan	nan	nan	nan	nan	nan	nan	nan	nan	-1875.895141601563	1019.006713867188	385.8382568359375	-1945.3740234375	608.2828979492188	452.2941589355469	nan	nan	nan	nan	nan	nan	nan	nan	nan	nan	nan	nan	nan	nan	nan	
814	8.130000000000001	nan	nan	nan	-1863.9287109375	1446.35986328125	89.13169860839844	-1809.534545898438	1451.229614257813	431.2580871582031	nan	nan	nan	-1890.703002929688	1003.297790527344	139.2857208251953	-1739.74853515625	608.1180419921875	78.97235870361328	-1735.63427734375	519.6769409179688	129.8850402832031	-1559.46533203125	241.8347778320313	102.2199325561523	nan	nan	nan	nan	nan	nan	nan	nan	nan	-1886.634399414063	1020.242004394531	387.184814453125	-1954.413452148438	609.0856323242188	453.2462768554688	nan	nan	nan	nan	nan	nan	nan	nan	nan	nan	nan	nan	nan	nan	nan	
815	8.140000000000001	nan	nan	nan	-1872.43701171875	1447.505859375	90.76559448242188	-1818.610473632813	1451.715209960938	433.009521484375	nan	nan	nan	-1900.807861328125	1003.896118164063	140.7087707519531	-1750.877685546875	608.9441528320313	80.35963439941406	-1747.354370117188	519.9912719726563	130.4454040527344	-1564.536376953125	245.4137878417969	102.4503631591797	nan	nan	nan	nan	nan	nan	nan	nan	nan	-1897.28759765625	1021.607971191406	388.6436157226563	-1963.450927734375	609.6475219726563	454.3480834960938	nan	nan	nan	nan	nan	nan	nan	nan	nan	nan	nan	nan	nan	nan	nan	
816	8.15	nan	nan	nan	-1880.923095703125	1448.8310546875	92.34455108642578	-1827.787841796875	1452.464477539063	434.7680969238281	nan	nan	nan	-1910.986694335938	1004.709716796875	142.320068359375	-1762.476318359375	609.6304321289063	81.65679931640625	-1759.788452148438	520.1986694335938	130.8232879638672	-1570.850708007813	249.6241607666016	101.8983993530273	nan	nan	nan	nan	nan	nan	nan	nan	nan	-1907.805541992188	1023.037780761719	390.2771606445313	-1972.892822265625	610.1865844726563	455.5818481445313	nan	nan	nan	nan	nan	nan	nan	nan	nan	nan	nan	nan	nan	nan	nan	
817	8.16	nan	nan	nan	-1889.504028320313	1450.283203125	93.94097137451172	-1837.026611328125	1453.433471679688	436.5000915527344	nan	nan	nan	-1921.18310546875	1005.706787109375	144.0888366699219	-1774.798461914063	610.2062377929688	82.87092590332031	-1773.116821289063	520.3289184570313	130.9914093017578	-1578.548461914063	254.5067138671875	101.0726547241211	nan	nan	nan	nan	nan	nan	nan	nan	nan	-1918.259643554688	1024.563598632813	391.9595336914063	-1979.275756835938	610.4938354492188	456.3866882324219	nan	nan	nan	nan	nan	nan	nan	nan	nan	nan	nan	nan	nan	nan	nan	
818	8.17	nan	nan	nan	-1898.160522460938	1451.862670898438	95.5140380859375	-1846.354736328125	1454.632202148438	438.2295532226563	nan	nan	nan	-1931.387939453125	1006.843078613281	145.9651641845703	-1787.853271484375	610.60791015625	83.95787811279297	-1787.549072265625	520.5601196289063	130.7990264892578	-1586.899536132813	259.5774536132813	100.4483261108398	nan	nan	nan	nan	nan	nan	nan	nan	nan	-1928.615234375	1026.07861328125	393.7896728515625	nan	nan	nan	nan	nan	nan	nan	nan	nan	nan	nan	nan	nan	nan	nan	nan	nan	nan	
819	8.18	nan	nan	nan	-1906.721069335938	1453.459228515625	97.03464508056641	-1855.66796875	1456.00634765625	439.9422912597656	nan	nan	nan	-1941.610961914063	1008.173461914063	147.9404449462891	-1801.447021484375	610.7734375	84.80017852783203	-1802.514770507813	520.5623779296875	130.1634063720703	-1595.695556640625	264.8186950683594	99.89708709716797	nan	nan	nan	nan	nan	nan	nan	nan	nan	-1938.837646484375	1027.63330078125	395.8171691894531	nan	nan	nan	nan	nan	nan	nan	nan	nan	nan	nan	nan	nan	nan	nan	nan	nan	nan	
820	8.19	nan	nan	nan	-1915.408569335938	1455.111938476563	98.5322265625	-1864.99951171875	1457.499755859375	441.6200256347656	nan	nan	nan	-1951.617919921875	1009.523010253906	149.9807281494141	-1815.685791015625	610.8404541015625	85.28929138183594	-1818.27685546875	520.5448608398438	129.1004791259766	-1604.572265625	269.9457397460938	99.49353790283203	nan	nan	nan	nan	nan	nan	nan	nan	nan	-1948.875122070313	1029.1435546875	397.9072570800781	nan	nan	nan	nan	nan	nan	nan	nan	nan	nan	nan	nan	nan	nan	nan	nan	nan	nan	
821	8.199999999999999	nan	nan	nan	-1924.044555664063	1456.73779296875	99.98438262939453	-1874.273315429688	1459.08740234375	443.2437438964844	nan	nan	nan	-1961.308349609375	1010.779052734375	152.0727996826172	-1830.440063476563	610.7141723632813	85.36373138427734	-1834.654541015625	520.2960815429688	127.3905944824219	-1614.66943359375	275.4836120605469	98.81326293945313	nan	nan	nan	nan	nan	nan	nan	nan	nan	-1958.9453125	1030.700439453125	400.0335693359375	-2013.29443359375	612.1011352539063	461.5614013671875	nan	nan	nan	nan	nan	nan	nan	nan	nan	nan	nan	nan	nan	nan	nan	
822	8.210000000000001	nan	nan	nan	-1932.578857421875	1458.236450195313	101.4018096923828	-1883.639526367188	1460.74609375	444.8318176269531	nan	nan	nan	-1970.75927734375	1011.933471679688	154.1606140136719	-1845.525634765625	610.34423828125	84.96855163574219	-1851.431762695313	519.8384399414063	125.3077545166016	-1626.3115234375	281.1809997558594	97.96669006347656	nan	nan	nan	nan	nan	nan	nan	nan	nan	-1968.759155273438	1032.096923828125	402.1383056640625	nan	nan	nan	nan	nan	nan	nan	nan	nan	nan	nan	nan	nan	nan	nan	nan	nan	nan	
823	8.220000000000001	nan	nan	nan	-1941.095092773438	1459.609619140625	102.8322219848633	-1893.057861328125	1462.362060546875	446.4200134277344	nan	nan	nan	-1980.07666015625	1012.975708007813	156.1610260009766	-1860.843017578125	609.74560546875	84.17113494873047	-1868.78466796875	519.4784545898438	123.3183670043945	-1638.847045898438	286.3467712402344	97.38442230224609	nan	nan	nan	nan	nan	nan	nan	nan	nan	-1978.397216796875	1033.338256835938	404.1687927246094	nan	nan	nan	nan	nan	nan	nan	nan	nan	nan	nan	nan	nan	nan	nan	nan	nan	nan	
824	8.23	nan	nan	nan	-1949.607421875	1460.844604492188	104.1991882324219	-1902.417846679688	1463.811645507813	447.9158020019531	nan	nan	nan	-1989.028198242188	1013.826599121094	158.0943450927734	-1876.570068359375	609.0800170898438	83.23140716552734	-1886.027587890625	518.9130249023438	121.5537948608398	-1653.467651367188	291.56640625	96.65835571289063	nan	nan	nan	nan	nan	nan	nan	nan	nan	-1987.874389648438	1034.449584960938	406.1198425292969	nan	nan	nan	nan	nan	nan	nan	nan	nan	nan	nan	nan	nan	nan	nan	nan	nan	nan	
